<svg version="1.1" viewBox="0.0 0.0 286.0 100.0" fill="none" stroke="none" stroke-linecap="square" stroke-miterlimit="10" xmlns:xlink="http://www.w3.org/1999/xlink" xmlns="http://www.w3.org/2000/svg"><clipPath id="p.0"><path d="m0 0l286.0 0l0 100.0l-286.0 0l0 -100.0z" clip-rule="nonzero"/></clipPath><g clip-path="url(#p.0)"><path fill="#000000" fill-opacity="0.0" d="m0 0l286.0 0l0 100.0l-286.0 0z" fill-rule="evenodd"/><path fill="#000000" fill-opacity="0.0" d="m0 14.9763775l309.00787 0l0 70.04724l-309.00787 0z" fill-rule="evenodd"/><path fill="#ff0000" d="m43.5625 70.05637l-0.046875 -20.156246l-9.890625 16.609371l-3.5 0l-9.84375 -16.187496l0 19.734371l-7.296875 0l0 -33.593746l6.4375 0l12.5625 20.875l12.390625 -20.875l6.390625 0l0.09375 33.593746l-7.296875 0zm37.386963 -7.203121l-15.59375 0l-2.984375 7.203121l-7.96875 0l14.984375 -33.593746l7.671875 0l15.03125 33.593746l-8.15625 0l-2.984375 -7.203121zm-2.453125 -5.90625l-5.3125 -12.859375l-5.328125 12.859375l10.640625 0zm38.26808 13.109371l-8.109375 -11.656246l-7.96875 11.656246l-8.9375 0l12.4375 -17.093746l-11.8125 -16.5l8.828125 0l7.734375 10.890625l7.578125 -10.890625l8.40625 0l-11.71875 16.21875l12.53125 17.374996l-8.96875 0zm57.49672 -33.593746l0 33.593746l-7.765625 0l0 -13.781246l-15.265625 0l0 13.781246l-7.78125 0l0 -33.593746l7.78125 0l0 13.234375l15.265625 0l0 -13.234375l7.765625 0zm33.987198 27.359375l0 6.234371l-26.015625 0l0 -33.593746l25.390625 0l0 6.234375l-17.65625 0l0 7.296875l15.59375 0l0 6.046875l-15.59375 0l0 7.78125l18.28125 0zm6.192444 -27.359375l7.78125 0l0 27.25l16.84375 0l0 6.343746l-24.625 0l0 -33.593746zm28.992065 0l15.26564 0q5.46875 0 9.671875 2.09375q4.203125 2.078125 6.53125 5.875q2.328125 3.78125 2.328125 8.828125q0 5.03125 -2.328125 8.828125q-2.328125 3.7968712 -6.53125 5.890621q-4.203125 2.078125 -9.671875 2.078125l-15.26564 0l0 -33.593746zm14.875015 27.203125q5.046875 0 8.046875 -2.796875q3.0 -2.8125 3.0 -7.609375q0 -4.796875 -3.0 -7.609375q-3.0 -2.8125 -8.046875 -2.8125l-7.0937653 0l0 20.828125l7.0937653 0z" fill-rule="nonzero"/></g></svg>